<?xml version="1.0" encoding="UTF-8" standalone="no"?>
<!-- Generator: Adobe Illustrator 16.0.3, SVG Export Plug-In . SVG Version: 6.00 Build 0)  -->

<svg
   version="1.1"
   id="Capa_1"
   x="0px"
   y="0px"
   width="1080"
   height="1080"
   viewBox="0 0 1079.9999 1080"
   enable-background="new 0 0 595.28 841.89"
   xml:space="preserve"
   sodipodi:docname="Logo del ITESO.svg"
   inkscape:version="1.1 (c68e22c387, 2021-05-23)"
   xmlns:inkscape="http://www.inkscape.org/namespaces/inkscape"
   xmlns:sodipodi="http://sodipodi.sourceforge.net/DTD/sodipodi-0.dtd"
   xmlns="http://www.w3.org/2000/svg"
   xmlns:svg="http://www.w3.org/2000/svg"><defs
   id="defs141">
	

		
		
		
		
		
		
		
		
		
		
		
		
		
		
		
		
		
		
		
		
		
		
		
		
		
		
		
		
		
		
		
		
		
		
		
		
		
		
		
		
		
		
		
		
		
		
		
		
		
		
		
		
		
		
		
		
		
		
		
		
		
		
		
		
		
		
	</defs><sodipodi:namedview
   id="namedview139"
   pagecolor="#ffffff"
   bordercolor="#666666"
   borderopacity="1.0"
   inkscape:pageshadow="2"
   inkscape:pageopacity="0.0"
   inkscape:pagecheckerboard="0"
   showgrid="false"
   fit-margin-top="0"
   fit-margin-left="0"
   fit-margin-right="0"
   fit-margin-bottom="0"
   inkscape:zoom="0.36031881"
   inkscape:cx="251.16646"
   inkscape:cy="417.68566"
   inkscape:window-width="1920"
   inkscape:window-height="1017"
   inkscape:window-x="-8"
   inkscape:window-y="394"
   inkscape:window-maximized="1"
   inkscape:current-layer="Capa_1" />
<g
   id="g1358"
   transform="matrix(4.1115906,0,0,4.1127882,-687.0272,-790.18588)"><path
     fill-rule="evenodd"
     clip-rule="evenodd"
     fill="#062754"
     d="m 307.84,192.13 c 2.448,0.305 4.896,0.604 7.345,0.916 9.896,1.258 19.485,3.628 28.877,7.085 11.237,4.137 21.515,9.903 31.305,16.695 4.055,2.814 7.765,6.021 11.467,9.253 0.174,0.152 0.321,0.335 0.619,0.648 -1.506,-0.196 -2.615,-0.961 -3.886,-1.259 -5.667,-1.331 -11.271,-0.708 -16.883,0.356 -13.179,2.497 -25.043,8.245 -36.547,14.835 -10.586,6.063 -20.717,12.828 -30.35,20.321 -0.76,0.59 -1.25,0.645 -2.039,0.022 -8.319,-6.564 -17.055,-12.541 -25.953,-18.284 -7.542,-4.868 -15.595,-8.748 -23.86,-12.204 -7.13,-2.981 -14.4,-5.473 -22.143,-6.314 -4.205,-0.457 -8.376,-0.361 -12.499,0.646 -1.057,0.258 -1.913,1.128 -3.25,1.084 2.699,-2.408 5.438,-4.535 8.178,-6.663 10.264,-7.972 21.483,-14.241 33.632,-18.847 9.298,-3.525 18.896,-5.875 28.737,-7.241 2.492,-0.346 5.003,-0.551 7.504,-0.829 0.348,-0.039 0.727,0.045 1.027,-0.221 6.239,0.001 12.479,0.001 18.719,0.001 z"
     id="path4" /><path
     fill-rule="evenodd"
     clip-rule="evenodd"
     fill="#062754"
     d="m 201.799,234.651 c -1.958,4.984 -2.396,10.11 -1.686,15.337 0.835,6.147 2.254,12.153 4.422,17.984 4.674,12.572 11.169,24.186 18.416,35.418 4.184,6.485 8.642,12.774 13.295,18.927 0.482,0.637 0.473,1.015 -0.012,1.617 -6.656,8.254 -12.784,16.902 -18.232,25.985 -5.813,9.691 -11.328,19.582 -14.858,30.395 -2.069,6.336 -3.985,12.736 -4.08,19.504 -0.053,3.748 0.364,7.412 1.712,10.938 0.077,0.201 0.308,0.392 0.141,0.654 -47.992,-53.222 -42.378,-131.434 0.882,-176.759 z"
     id="path10" /><path
     fill-rule="evenodd"
     clip-rule="evenodd"
     fill="#062754"
     d="m 394.978,412.155 c 0.682,-1.658 1.126,-3.382 1.414,-5.14 1.012,-6.166 0.498,-12.215 -1.013,-18.279 -2.57,-10.313 -6.94,-19.859 -11.81,-29.228 -6.212,-11.954 -13.797,-23.006 -21.979,-33.67 -1.691,-2.204 -1.726,-2.186 -0.031,-4.319 8.465,-10.66 16.021,-21.925 22.633,-33.825 5.513,-9.92 9.998,-20.233 12.496,-31.366 1.532,-6.828 1.377,-13.545 -0.592,-20.24 -0.057,-0.191 -0.128,-0.378 -0.178,-0.57 -0.019,-0.073 0.004,-0.156 0.009,-0.234 44.116,47.432 46.436,125.942 -0.949,176.871 z"
     id="path12" /><path
     fill-rule="evenodd"
     clip-rule="evenodd"
     fill="#062754"
     d="m 209.644,419.954 c 6.352,2.2 12.706,2.435 19.131,1.258 10.988,-2.013 21.179,-6.219 31.007,-11.399 10.762,-5.673 21.092,-12.045 30.928,-19.208 2.228,-1.622 4.412,-3.311 6.538,-5.063 0.791,-0.652 1.24,-0.567 1.989,0.047 10.093,8.284 20.872,15.597 32.183,22.087 8.075,4.633 16.544,8.521 25.339,11.604 6.759,2.37 13.764,3.476 20.951,3.393 2.515,-0.029 4.916,-0.453 7.229,-1.42 0.331,-0.139 0.667,-0.265 1.007,-0.375 0.098,-0.032 0.218,0.012 0.351,0.022 -49.121,45.402 -127.498,45.108 -176.653,-0.946 z"
     id="path14" /><path
     fill-rule="evenodd"
     clip-rule="evenodd"
     fill="#062754"
     d="m 297.972,364.778 c -0.257,-0.208 -0.48,-0.369 -0.682,-0.553 -17.294,-15.736 -33.78,-32.231 -47.947,-50.914 -0.501,-0.661 -0.435,-0.99 0.088,-1.566 10.432,-11.495 21.229,-22.624 32.902,-32.873 5.227,-4.589 10.657,-8.938 16.061,-13.316 0.64,-0.518 0.938,-0.192 1.393,0.172 8.412,6.717 16.355,13.951 24.055,21.473 8.33,8.139 16.274,16.62 23.73,25.565 0.507,0.608 0.554,0.927 0.04,1.56 -12.502,15.392 -26.05,29.781 -40.954,42.876 -2.613,2.295 -5.211,4.608 -7.819,6.907 -0.266,0.234 -0.56,0.433 -0.867,0.669 z"
     id="path16" /><path
     fill-rule="evenodd"
     clip-rule="evenodd"
     fill="#062754"
     d="m 388.058,388.714 c 0.024,3.35 -0.511,6.635 -2.075,9.614 -1.254,2.386 -3.31,3.997 -5.801,5.14 -4.455,2.043 -9.034,1.598 -13.645,0.957 -6.441,-0.895 -12.375,-3.363 -18.246,-5.991 -9.33,-4.177 -17.925,-9.631 -26.405,-15.285 -3.626,-2.417 -7.176,-4.932 -10.663,-7.544 -0.73,-0.547 -0.678,-0.804 -0.025,-1.36 16.715,-14.254 31.719,-30.188 45.952,-46.875 1.201,-1.409 1.183,-1.394 2.263,0.124 5.211,7.326 10.372,14.685 14.895,22.466 3.998,6.879 7.699,13.938 10.282,21.458 1.908,5.563 3.662,11.26 3.468,17.296 z"
     id="path18" /><path
     fill-rule="evenodd"
     clip-rule="evenodd"
     fill="#062754"
     d="m 301.114,263.544 c 5.396,-4.201 10.862,-8.167 16.618,-11.703 9.196,-5.651 18.651,-10.833 28.785,-14.627 5.509,-2.063 11.212,-3.532 17.13,-3.694 4.1,-0.112 8.049,0.713 11.375,3.347 1.653,1.309 2.757,3.063 3.621,4.987 1.691,3.767 1.508,7.678 1.109,11.648 -0.731,7.279 -3.509,13.886 -6.512,20.43 -5.675,12.367 -13.078,23.677 -21.167,34.566 -0.661,0.89 -1.336,1.77 -2.029,2.687 -15.278,-17.032 -31.143,-33.292 -48.93,-47.641 z"
     id="path20" /><path
     fill-rule="evenodd"
     clip-rule="evenodd"
     fill="#062754"
     d="m 285.849,374.39 c -1.722,1.297 -3.319,2.487 -4.903,3.695 -6.82,5.205 -14.299,9.351 -21.719,13.599 -7.058,4.04 -14.335,7.542 -22.168,9.832 -5.296,1.549 -10.669,2.526 -16.187,2.003 -4.88,-0.463 -9.067,-2.35 -11.398,-6.996 -1.023,-2.04 -1.36,-4.329 -1.689,-6.58 -0.58,-3.97 0.381,-7.79 1.304,-11.584 2.18,-8.957 6.005,-17.239 10.587,-25.19 5.393,-9.358 11.314,-18.366 17.923,-26.916 0.24,-0.312 0.489,-0.616 0.796,-1.002 14.566,17.599 29.901,34.36 47.454,49.139 z"
     id="path22" /><path
     fill-rule="evenodd"
     clip-rule="evenodd"
     fill="#062754"
     d="m 247.187,310.7 c -2.191,-3.117 -4.354,-6.178 -6.501,-9.25 -6.629,-9.486 -12.396,-19.464 -16.949,-30.113 -2.613,-6.111 -4.75,-12.43 -5.423,-19.046 -0.474,-4.654 -0.501,-9.486 2.293,-13.672 1.634,-2.448 3.851,-4.144 6.747,-5.06 5.506,-1.741 10.878,-0.906 16.285,0.411 8.096,1.971 15.646,5.322 22.875,9.341 10.239,5.691 20.024,12.107 29.295,19.293 0.794,0.615 0.702,0.82 -0.009,1.393 -14.433,11.626 -27.93,24.265 -40.621,37.764 -2.71,2.88 -5.278,5.894 -7.992,8.939 z"
     id="path24" /><path
     fill-rule="evenodd"
     clip-rule="evenodd"
     fill="#fefefe"
     d="m 280.589,315.986 c -4.556,0.128 -9.114,0.211 -13.667,0.415 -1.151,0.051 -1.43,-0.292 -1.352,-1.359 0.087,-1.193 0.062,-2.4 0.004,-3.597 -0.036,-0.763 0.159,-1.033 0.982,-0.998 5.272,0.221 10.548,0.391 15.822,0.578 3.796,0.135 7.592,0.287 11.388,0.401 2.072,0.062 2.664,-0.541 2.61,-2.609 -0.235,-9.074 -0.468,-18.147 -0.743,-27.22 -0.027,-0.906 0.117,-1.298 1.129,-1.224 1.273,0.093 2.561,0.065 3.837,0.005 0.776,-0.036 1.025,0.179 0.997,0.99 -0.158,4.435 -0.263,8.873 -0.38,13.31 -0.125,4.756 -0.255,9.513 -0.359,14.27 -0.043,1.916 0.593,2.548 2.502,2.482 8.951,-0.308 17.901,-0.613 26.851,-0.979 1.125,-0.046 1.568,0.157 1.448,1.369 -0.119,1.188 -0.078,2.4 -0.009,3.596 0.047,0.808 -0.222,1.007 -1.005,0.982 -6.754,-0.214 -13.508,-0.394 -20.263,-0.577 -2.518,-0.068 -5.036,-0.125 -7.555,-0.178 -1.559,-0.033 -2.004,0.417 -1.971,2.103 0.075,3.877 0.178,7.755 0.28,11.632 0.141,5.276 0.269,10.553 0.46,15.827 0.034,0.957 -0.127,1.364 -1.189,1.272 -1.191,-0.104 -2.401,-0.084 -3.596,-0.004 -0.93,0.063 -1.219,-0.194 -1.186,-1.169 0.243,-7.193 0.431,-14.388 0.628,-21.583 0.055,-1.999 0.104,-3.998 0.121,-5.997 0.015,-1.723 -0.41,-2.096 -2.117,-2.09 -4.556,0.015 -9.113,0.005 -13.669,0.005 0.002,0.116 0.002,0.232 0.002,0.347 z"
     id="path104" /></g>
</svg>
