<?xml version="1.0" encoding="UTF-8" standalone="no"?>
<!DOCTYPE svg PUBLIC "-//W3C//DTD SVG 1.1//EN"
 "http://www.w3.org/Graphics/SVG/1.1/DTD/svg11.dtd">
<!-- Generated by graphviz version 14.0.1 (20251006.0113)
 -->
<!-- Title: tm Pages: 1 -->
<svg width="1694pt" height="379pt"
 viewBox="0.00 0.00 1694.00 379.00" xmlns="http://www.w3.org/2000/svg" xmlns:xlink="http://www.w3.org/1999/xlink">
<g id="graph0" class="graph" transform="scale(1 1) rotate(0) translate(4 375)">
<title>tm</title>
<polygon fill="white" stroke="none" points="-4,4 -4,-375 1689.61,-375 1689.61,4 -4,4"/>
<g id="clust1" class="cluster">
<title>cluster_boundary_AWS_88f2d9c06f</title>
<polygon fill="none" stroke="#ee2c2c" stroke-dasharray="5,2" points="8,-155 8,-336 417.27,-336 417.27,-155 8,-155"/>
<text xml:space="preserve" text-anchor="start" x="201.39" y="-323.5" font-family="Helvetica,sans-Serif" font-style="italic" font-size="10.00">AWS</text>
</g>
<g id="clust2" class="cluster">
<title>cluster_boundary_Internet_acf3059e70</title>
<polygon fill="none" stroke="#ee2c2c" stroke-dasharray="5,2" points="276.64,-8 276.64,-147 396.77,-147 396.77,-8 276.64,-8"/>
<text xml:space="preserve" text-anchor="start" x="320.2" y="-134.5" font-family="Helvetica,sans-Serif" font-style="italic" font-size="10.00">Internet</text>
</g>
<g id="clust3" class="cluster">
<title>cluster_boundary_PrivateSubnet_f2eb7a3ff7</title>
<polygon fill="none" stroke="#ee2c2c" stroke-dasharray="5,2" points="1051.7,-170 1051.7,-363 1592.36,-363 1592.36,-170 1051.7,-170"/>
<text xml:space="preserve" text-anchor="start" x="1289.78" y="-350.5" font-family="Helvetica,sans-Serif" font-style="italic" font-size="10.00">Private Subnet</text>
</g>
<g id="clust4" class="cluster">
<title>cluster_boundary_PublicSubnet_579e9aae81</title>
<polygon fill="none" stroke="#ee2c2c" stroke-dasharray="5,2" points="569.52,-178 569.52,-342 903.95,-342 903.95,-178 569.52,-178"/>
<text xml:space="preserve" text-anchor="start" x="706.36" y="-329.5" font-family="Helvetica,sans-Serif" font-style="italic" font-size="10.00">Public Subnet</text>
</g>
<!-- server_AWSWAF_f8af758679 -->
<g id="node1" class="node">
<title>server_AWSWAF_f8af758679</title>
<ellipse fill="#eef2ff" stroke="black" cx="54.82" cy="-202" rx="38.82" ry="38.82"/>
<text xml:space="preserve" text-anchor="middle" x="54.82" y="-196.2" font-family="Helvetica,sans-Serif" font-size="14.00">AWS WAF</text>
</g>
<!-- server_ApplicationLoadBalancer_2c440ebe53 -->
<g id="node2" class="node">
<title>server_ApplicationLoadBalancer_2c440ebe53</title>
<ellipse fill="#eef2ff" stroke="black" cx="336.7" cy="-236" rx="72.57" ry="72.57"/>
<text xml:space="preserve" text-anchor="middle" x="336.7" y="-237.7" font-family="Helvetica,sans-Serif" font-size="14.00">Application Load</text>
<text xml:space="preserve" text-anchor="middle" x="336.7" y="-222.7" font-family="Helvetica,sans-Serif" font-size="14.00">Balancer</text>
</g>
<!-- server_AWSWAF_f8af758679&#45;&gt;server_ApplicationLoadBalancer_2c440ebe53 -->
<g id="edge3" class="edge">
<title>server_AWSWAF_f8af758679&#45;&gt;server_ApplicationLoadBalancer_2c440ebe53</title>
<path fill="none" stroke="black" stroke-width="1.5" d="M94.01,-202.12C94.01,-202.12 259.86,-202.12 259.86,-202.12"/>
<polygon fill="black" stroke="black" stroke-width="1.5" points="259.86,-205.62 269.86,-202.12 259.86,-198.62 259.86,-205.62"/>
<text xml:space="preserve" text-anchor="middle" x="178.88" y="-235.35" font-family="Helvetica,sans-Serif" font-size="12.00">(3) Forward HTTPS</text>
</g>
<!-- actor_ClienteWebApp_d2006ce1bb -->
<g id="node3" class="node">
<title>actor_ClienteWebApp_d2006ce1bb</title>
<path fill="#eef2ff" stroke="black" d="M376.77,-120.06C376.77,-120.06 296.64,-120.06 296.64,-120.06 290.64,-120.06 284.64,-114.06 284.64,-108.06 284.64,-108.06 284.64,-27.94 284.64,-27.94 284.64,-21.93 290.64,-15.93 296.64,-15.93 296.64,-15.93 376.77,-15.93 376.77,-15.93 382.77,-15.93 388.77,-21.93 388.77,-27.93 388.77,-27.93 388.77,-108.06 388.77,-108.06 388.77,-114.06 382.77,-120.06 376.77,-120.06"/>
<text xml:space="preserve" text-anchor="middle" x="336.7" y="-62.2" font-family="Helvetica,sans-Serif" font-size="14.00">Cliente Web/App</text>
</g>
<!-- server_AWSWAF_f8af758679&#45;&gt;actor_ClienteWebApp_d2006ce1bb -->
<g id="edge2" class="edge">
<title>server_AWSWAF_f8af758679&#45;&gt;actor_ClienteWebApp_d2006ce1bb</title>
<path fill="none" stroke="black" stroke-width="1.5" d="M67.36,-164.77C67.36,-130.64 67.36,-85.35 67.36,-85.35 67.36,-85.35 272.18,-85.35 272.18,-85.35"/>
<polygon fill="black" stroke="black" stroke-width="1.5" points="272.18,-88.86 282.18,-85.36 272.18,-81.86 272.18,-88.86"/>
<text xml:space="preserve" text-anchor="middle" x="178.88" y="-180.85" font-family="Helvetica,sans-Serif" font-size="12.00">(2) HTTPS Respond </text>
<text xml:space="preserve" text-anchor="middle" x="178.88" y="-168.1" font-family="Helvetica,sans-Serif" font-size="12.00">(Interface/Dashboa</text>
<text xml:space="preserve" text-anchor="middle" x="178.88" y="-155.35" font-family="Helvetica,sans-Serif" font-size="12.00">rd)</text>
</g>
<!-- server_FrontEnd_0291419f72 -->
<g id="node8" class="node">
<title>server_FrontEnd_0291419f72</title>
<ellipse fill="#eef2ff" stroke="black" cx="611.15" cy="-242" rx="33.63" ry="33.63"/>
<text xml:space="preserve" text-anchor="middle" x="611.15" y="-236.2" font-family="Helvetica,sans-Serif" font-size="14.00">FrontEnd</text>
</g>
<!-- server_ApplicationLoadBalancer_2c440ebe53&#45;&gt;server_FrontEnd_0291419f72 -->
<g id="edge4" class="edge">
<title>server_ApplicationLoadBalancer_2c440ebe53&#45;&gt;server_FrontEnd_0291419f72</title>
<path fill="none" stroke="black" stroke-width="1.5" d="M407.38,-253.21C407.38,-253.21 566.93,-253.21 566.93,-253.21"/>
<polygon fill="black" stroke="black" stroke-width="1.5" points="566.93,-256.71 576.93,-253.21 566.93,-249.71 566.93,-256.71"/>
<text xml:space="preserve" text-anchor="middle" x="493.4" y="-283.1" font-family="Helvetica,sans-Serif" font-size="12.00">(4) HTTPS User</text>
<text xml:space="preserve" text-anchor="middle" x="493.4" y="-270.35" font-family="Helvetica,sans-Serif" font-size="12.00">Action to FrontEnd</text>
</g>
<!-- actor_ClienteWebApp_d2006ce1bb&#45;&gt;server_AWSWAF_f8af758679 -->
<g id="edge1" class="edge">
<title>actor_ClienteWebApp_d2006ce1bb&#45;&gt;server_AWSWAF_f8af758679</title>
<path fill="none" stroke="black" stroke-width="1.5" d="M284.42,-50.64C199.84,-50.64 42.36,-50.64 42.36,-50.65 42.36,-50.65 42.36,-152.7 42.36,-152.7"/>
<polygon fill="black" stroke="black" stroke-width="1.5" points="38.86,-152.7 42.36,-162.7 45.86,-152.7 38.86,-152.7"/>
<text xml:space="preserve" text-anchor="middle" x="178.88" y="-99.85" font-family="Helvetica,sans-Serif" font-size="12.00">(1) HTTPS Request</text>
<text xml:space="preserve" text-anchor="middle" x="178.88" y="-87.1" font-family="Helvetica,sans-Serif" font-size="12.00">(User Login,</text>
<text xml:space="preserve" text-anchor="middle" x="178.88" y="-74.35" font-family="Helvetica,sans-Serif" font-size="12.00">Orders)</text>
</g>
<!-- server_WebServer_c6f87088c2 -->
<g id="node4" class="node">
<title>server_WebServer_c6f87088c2</title>
<ellipse fill="#eef2ff" stroke="black" cx="1102.4" cy="-293" rx="42.7" ry="42.7"/>
<text xml:space="preserve" text-anchor="middle" x="1102.4" y="-287.2" font-family="Helvetica,sans-Serif" font-size="14.00">Web Server</text>
</g>
<!-- server_APIGateway_c76a0a7067 -->
<g id="node9" class="node">
<title>server_APIGateway_c76a0a7067</title>
<ellipse fill="#eef2ff" stroke="black" cx="848.49" cy="-250" rx="47.46" ry="47.46"/>
<text xml:space="preserve" text-anchor="middle" x="848.49" y="-244.2" font-family="Helvetica,sans-Serif" font-size="14.00">API Gateway</text>
</g>
<!-- server_WebServer_c6f87088c2&#45;&gt;server_APIGateway_c76a0a7067 -->
<g id="edge9" class="edge">
<title>server_WebServer_c6f87088c2&#45;&gt;server_APIGateway_c76a0a7067</title>
<path fill="none" stroke="black" stroke-width="1.5" d="M1068.69,-266.02C1068.69,-266.02 905.76,-266.02 905.76,-266.02"/>
<polygon fill="black" stroke="black" stroke-width="1.5" points="905.76,-262.52 895.76,-266.02 905.76,-269.52 905.76,-262.52"/>
<text xml:space="preserve" text-anchor="middle" x="977.82" y="-331.1" font-family="Helvetica,sans-Serif" font-size="12.00">(9) Server</text>
<text xml:space="preserve" text-anchor="middle" x="977.82" y="-318.35" font-family="Helvetica,sans-Serif" font-size="12.00">Response (HTTPS)</text>
</g>
<!-- lambda_Lambda_9345ab4c19 -->
<g id="node5" class="node">
<title>lambda_Lambda_9345ab4c19</title>
<path fill="none" stroke="black" d="M1128.65,-214C1128.65,-214 1076.15,-214 1076.15,-214 1070.15,-214 1064.15,-208 1064.15,-202 1064.15,-202 1064.15,-190 1064.15,-190 1064.15,-184 1070.15,-178 1076.15,-178 1076.15,-178 1128.65,-178 1128.65,-178 1134.65,-178 1140.65,-184 1140.65,-190 1140.65,-190 1140.65,-202 1140.65,-202 1140.65,-208 1134.65,-214 1128.65,-214"/>
<text xml:space="preserve" text-anchor="start" x="1076.15" y="-191.2" font-family="Helvetica,sans-Serif" font-weight="bold" font-size="14.00">Lambda</text>
</g>
<!-- datastore_AmazonDynamoDB_86e4604564 -->
<g id="node6" class="node">
<title>datastore_AmazonDynamoDB_86e4604564</title>
<path fill="#eef2ff" stroke="none" d="M1354.98,-223C1354.98,-223 1324.98,-223 1324.98,-223 1318.98,-223 1312.98,-217 1312.98,-211 1312.98,-211 1312.98,-199 1312.98,-199 1312.98,-193 1318.98,-187 1324.98,-187 1324.98,-187 1354.98,-187 1354.98,-187 1360.98,-187 1366.98,-193 1366.98,-199 1366.98,-199 1366.98,-211 1366.98,-211 1366.98,-217 1360.98,-223 1354.98,-223"/>
<image xlink:href="/Users/charlyleano/Documents/GitHub/DSS_proyecto_final/Diagrama_y_Arquitectura/venv/lib/python3.14/site-packages/pytm/images/datastore_black.png" width="49.6px" height="36px" preserveAspectRatio="xMinYMin meet" x="1315.18" y="-223"/>
<text xml:space="preserve" text-anchor="middle" x="1251.11" y="-173.7" font-family="Helvetica,sans-Serif" font-size="14.00">Amazon DynamoDB</text>
</g>
<!-- lambda_Lambda_9345ab4c19&#45;&gt;datastore_AmazonDynamoDB_86e4604564 -->
<g id="edge11" class="edge">
<title>lambda_Lambda_9345ab4c19&#45;&gt;datastore_AmazonDynamoDB_86e4604564</title>
<path fill="none" stroke="black" stroke-width="1.5" d="M1141.1,-200.5C1141.1,-200.5 1309.73,-200.5 1309.73,-200.5"/>
<polygon fill="black" stroke="black" stroke-width="1.5" points="1309.73,-204 1319.73,-200.5 1309.73,-197 1309.73,-204"/>
<text xml:space="preserve" text-anchor="middle" x="1218.73" y="-215.35" font-family="Helvetica,sans-Serif" font-size="12.00">(11) Write Orders</text>
</g>
<!-- datastore_SBucketWebAppImages_b2e5892d06 -->
<g id="node7" class="node">
<title>datastore_SBucketWebAppImages_b2e5892d06</title>
<path fill="#eef2ff" stroke="none" d="M1572.36,-288C1572.36,-288 1542.36,-288 1542.36,-288 1536.36,-288 1530.36,-282 1530.36,-276 1530.36,-276 1530.36,-264 1530.36,-264 1530.36,-258 1536.36,-252 1542.36,-252 1542.36,-252 1572.36,-252 1572.36,-252 1578.36,-252 1584.36,-258 1584.36,-264 1584.36,-264 1584.36,-276 1584.36,-276 1584.36,-282 1578.36,-288 1572.36,-288"/>
<image xlink:href="/Users/charlyleano/Documents/GitHub/DSS_proyecto_final/Diagrama_y_Arquitectura/venv/lib/python3.14/site-packages/pytm/images/datastore_black.png" width="49.6px" height="36px" preserveAspectRatio="xMinYMin meet" x="1532.56" y="-288"/>
<text xml:space="preserve" text-anchor="middle" x="1634.98" y="-238.7" font-family="Helvetica,sans-Serif" font-size="14.00">S3 Bucket &#45; Web</text>
<text xml:space="preserve" text-anchor="middle" x="1634.98" y="-223.7" font-family="Helvetica,sans-Serif" font-size="14.00">App Images</text>
</g>
<!-- lambda_Lambda_9345ab4c19&#45;&gt;datastore_SBucketWebAppImages_b2e5892d06 -->
<g id="edge12" class="edge">
<title>lambda_Lambda_9345ab4c19&#45;&gt;datastore_SBucketWebAppImages_b2e5892d06</title>
<path fill="none" stroke="black" stroke-width="1.5" d="M1140.8,-182.5C1250.48,-182.5 1557.36,-182.5 1557.36,-182.5 1557.36,-182.5 1557.36,-231 1557.36,-231"/>
<polygon fill="black" stroke="black" stroke-width="1.5" points="1553.86,-231 1557.36,-241 1560.86,-231 1553.86,-231"/>
<text xml:space="preserve" text-anchor="middle" x="1339.98" y="-309.1" font-family="Helvetica,sans-Serif" font-size="12.00">(12) Upload/Read</text>
<text xml:space="preserve" text-anchor="middle" x="1339.98" y="-296.35" font-family="Helvetica,sans-Serif" font-size="12.00">Images</text>
</g>
<!-- datastore_AmazonDynamoDB_86e4604564&#45;&gt;datastore_SBucketWebAppImages_b2e5892d06 -->
<g id="edge13" class="edge">
<title>datastore_AmazonDynamoDB_86e4604564&#45;&gt;datastore_SBucketWebAppImages_b2e5892d06</title>
<path fill="none" stroke="black" stroke-width="1.5" d="M1340.36,-231.81C1340.36,-249.72 1340.36,-270 1340.36,-270 1340.36,-270 1527.33,-270 1527.33,-270"/>
<polygon fill="black" stroke="black" stroke-width="1.5" points="1527.33,-273.5 1537.33,-270 1527.33,-266.5 1527.33,-273.5"/>
<text xml:space="preserve" text-anchor="middle" x="1458.98" y="-246.35" font-family="Helvetica,sans-Serif" font-size="12.00">(13) Get Images</text>
</g>
<!-- server_FrontEnd_0291419f72&#45;&gt;server_ApplicationLoadBalancer_2c440ebe53 -->
<g id="edge5" class="edge">
<title>server_FrontEnd_0291419f72&#45;&gt;server_ApplicationLoadBalancer_2c440ebe53</title>
<path fill="none" stroke="black" stroke-width="1.5" d="M579.13,-230.79C579.13,-230.79 421.64,-230.79 421.64,-230.79"/>
<polygon fill="black" stroke="black" stroke-width="1.5" points="421.64,-227.29 411.64,-230.79 421.64,-234.29 421.64,-227.29"/>
<text xml:space="preserve" text-anchor="middle" x="493.4" y="-216.1" font-family="Helvetica,sans-Serif" font-size="12.00">(5) HTTPS FrontEnd</text>
<text xml:space="preserve" text-anchor="middle" x="493.4" y="-203.35" font-family="Helvetica,sans-Serif" font-size="12.00">Action</text>
</g>
<!-- server_FrontEnd_0291419f72&#45;&gt;server_APIGateway_c76a0a7067 -->
<g id="edge6" class="edge">
<title>server_FrontEnd_0291419f72&#45;&gt;server_APIGateway_c76a0a7067</title>
<path fill="none" stroke="black" stroke-width="1.5" d="M643.16,-230.79C643.16,-230.79 792.66,-230.79 792.66,-230.79"/>
<polygon fill="black" stroke="black" stroke-width="1.5" points="792.66,-234.29 802.66,-230.79 792.66,-227.29 792.66,-234.29"/>
<text xml:space="preserve" text-anchor="middle" x="722.91" y="-236.1" font-family="Helvetica,sans-Serif" font-size="12.00">(6) API Call to</text>
<text xml:space="preserve" text-anchor="middle" x="722.91" y="-223.35" font-family="Helvetica,sans-Serif" font-size="12.00">Gateway (HTTPS)</text>
</g>
<!-- server_APIGateway_c76a0a7067&#45;&gt;server_WebServer_c6f87088c2 -->
<g id="edge8" class="edge">
<title>server_APIGateway_c76a0a7067&#45;&gt;server_WebServer_c6f87088c2</title>
<path fill="none" stroke="black" stroke-width="1.5" d="M884.33,-281.74C884.33,-281.74 1048.57,-281.74 1048.57,-281.74"/>
<polygon fill="black" stroke="black" stroke-width="1.5" points="1048.57,-285.24 1058.57,-281.74 1048.57,-278.24 1048.57,-285.24"/>
<text xml:space="preserve" text-anchor="middle" x="977.82" y="-264.1" font-family="Helvetica,sans-Serif" font-size="12.00">(8) API Request</text>
<text xml:space="preserve" text-anchor="middle" x="977.82" y="-251.35" font-family="Helvetica,sans-Serif" font-size="12.00">(HTTPS)</text>
</g>
<!-- server_APIGateway_c76a0a7067&#45;&gt;lambda_Lambda_9345ab4c19 -->
<g id="edge10" class="edge">
<title>server_APIGateway_c76a0a7067&#45;&gt;lambda_Lambda_9345ab4c19</title>
<path fill="none" stroke="black" stroke-width="1.5" d="M871.92,-208.27C871.92,-208.27 1051.6,-208.27 1051.6,-208.27"/>
<polygon fill="black" stroke="black" stroke-width="1.5" points="1051.6,-211.77 1061.6,-208.27 1051.6,-204.77 1051.6,-211.77"/>
<text xml:space="preserve" text-anchor="middle" x="977.82" y="-197.35" font-family="Helvetica,sans-Serif" font-size="12.00">(10) Invoke Lambda</text>
</g>
<!-- server_APIGateway_c76a0a7067&#45;&gt;server_FrontEnd_0291419f72 -->
<g id="edge7" class="edge">
<title>server_APIGateway_c76a0a7067&#45;&gt;server_FrontEnd_0291419f72</title>
<path fill="none" stroke="black" stroke-width="1.5" d="M800.75,-253.21C800.75,-253.21 655.52,-253.21 655.52,-253.21"/>
<polygon fill="black" stroke="black" stroke-width="1.5" points="655.52,-249.71 645.52,-253.21 655.52,-256.71 655.52,-249.71"/>
<text xml:space="preserve" text-anchor="middle" x="722.91" y="-303.1" font-family="Helvetica,sans-Serif" font-size="12.00">(7) API Response</text>
<text xml:space="preserve" text-anchor="middle" x="722.91" y="-290.35" font-family="Helvetica,sans-Serif" font-size="12.00">(HTTPS)</text>
</g>
</g>
</svg>
