<?xml version="1.0" encoding="UTF-8" standalone="no"?>
<!DOCTYPE svg PUBLIC "-//W3C//DTD SVG 1.1//EN"
 "http://www.w3.org/Graphics/SVG/1.1/DTD/svg11.dtd">
<!-- Generated by graphviz version 14.0.1 (20251006.0113)
 -->
<!-- Title: tm Pages: 1 -->
<svg width="4181pt" height="1075pt"
 viewBox="0.00 0.00 4181.00 1075.00" xmlns="http://www.w3.org/2000/svg" xmlns:xlink="http://www.w3.org/1999/xlink">
<g id="graph0" class="graph" transform="scale(2.66667 2.66667) rotate(0) translate(4 399)">
<title>tm</title>
<polygon fill="white" stroke="none" points="-4,4 -4,-399 1563.89,-399 1563.89,4 -4,4"/>
<g id="clust1" class="cluster">
<title>cluster_boundary_AWS_88f2d9c06f</title>
<polygon fill="none" stroke="#ee2c2c" stroke-dasharray="5,2" points="8,-205 8,-387 397.26,-387 397.26,-205 8,-205"/>
<text xml:space="preserve" text-anchor="start" x="191.01" y="-374.5" font-family="Arial" font-style="italic" font-size="10.00">AWS</text>
</g>
<g id="clust2" class="cluster">
<title>cluster_boundary_Internet_acf3059e70</title>
<polygon fill="none" stroke="#ee2c2c" stroke-dasharray="5,2" points="256.63,-8 256.63,-148 376.76,-148 376.76,-8 256.63,-8"/>
<text xml:space="preserve" text-anchor="start" x="300.19" y="-135.5" font-family="Arial" font-style="italic" font-size="10.00">Internet</text>
</g>
<g id="clust3" class="cluster">
<title>cluster_boundary_PrivateSubnet_f2eb7a3ff7</title>
<polygon fill="none" stroke="#ee2c2c" stroke-dasharray="5,2" points="968.01,-113 968.01,-358 1466.64,-358 1466.64,-113 968.01,-113"/>
<text xml:space="preserve" text-anchor="start" x="1185.08" y="-345.5" font-family="Arial" font-style="italic" font-size="10.00">Private Subnet</text>
</g>
<g id="clust4" class="cluster">
<title>cluster_boundary_PublicSubnet_579e9aae81</title>
<polygon fill="none" stroke="#ee2c2c" stroke-dasharray="5,2" points="527.51,-122 527.51,-365 842.26,-365 842.26,-122 527.51,-122"/>
<text xml:space="preserve" text-anchor="start" x="654.51" y="-352.5" font-family="Arial" font-style="italic" font-size="10.00">Public Subnet</text>
</g>
<!-- server_AWSWAF_f8af758679 -->
<g id="node1" class="node">
<title>server_AWSWAF_f8af758679</title>
<ellipse fill="none" stroke="black" cx="55.81" cy="-253" rx="39.81" ry="39.81"/>
<text xml:space="preserve" text-anchor="middle" x="55.81" y="-247.57" font-family="Arial" font-size="14.00">AWS WAF</text>
</g>
<!-- server_ApplicationLoadBalancer_2c440ebe53 -->
<g id="node2" class="node">
<title>server_ApplicationLoadBalancer_2c440ebe53</title>
<ellipse fill="none" stroke="black" cx="316.69" cy="-286" rx="72.57" ry="72.57"/>
<text xml:space="preserve" text-anchor="middle" x="316.69" y="-288.45" font-family="Arial" font-size="14.00">Application Load</text>
<text xml:space="preserve" text-anchor="middle" x="316.69" y="-272.7" font-family="Arial" font-size="14.00">Balancer</text>
</g>
<!-- server_AWSWAF_f8af758679&#45;&gt;server_ApplicationLoadBalancer_2c440ebe53 -->
<g id="edge3" class="edge">
<title>server_AWSWAF_f8af758679&#45;&gt;server_ApplicationLoadBalancer_2c440ebe53</title>
<path fill="none" stroke="black" d="M96,-253.12C96,-253.12 240.06,-253.12 240.06,-253.12"/>
<polygon fill="black" stroke="black" points="240.06,-256.62 250.06,-253.12 240.06,-249.62 240.06,-256.62"/>
<text xml:space="preserve" text-anchor="middle" x="169.87" y="-299.85" font-family="Arial" font-size="12.00">(3) Forward HTTPS</text>
</g>
<!-- actor_ClienteWebApp_d2006ce1bb -->
<g id="node3" class="node">
<title>actor_ClienteWebApp_d2006ce1bb</title>
<polygon fill="none" stroke="black" points="368.76,-120.06 264.63,-120.06 264.63,-15.93 368.76,-15.93 368.76,-120.06"/>
<text xml:space="preserve" text-anchor="middle" x="316.69" y="-62.58" font-family="Arial" font-size="14.00">Cliente Web/App</text>
</g>
<!-- server_AWSWAF_f8af758679&#45;&gt;actor_ClienteWebApp_d2006ce1bb -->
<g id="edge2" class="edge">
<title>server_AWSWAF_f8af758679&#45;&gt;actor_ClienteWebApp_d2006ce1bb</title>
<path fill="none" stroke="black" d="M68.64,-214.96C68.64,-165.5 68.64,-85.35 68.64,-85.35 68.64,-85.35 252.88,-85.35 252.88,-85.35"/>
<polygon fill="black" stroke="black" points="252.88,-88.86 262.88,-85.36 252.88,-81.86 252.88,-88.86"/>
<text xml:space="preserve" text-anchor="middle" x="169.87" y="-208.35" font-family="Arial" font-size="12.00">(2) HTTPS Respond </text>
<text xml:space="preserve" text-anchor="middle" x="169.87" y="-194.1" font-family="Arial" font-size="12.00">(Interface/Dashboa</text>
<text xml:space="preserve" text-anchor="middle" x="169.87" y="-179.85" font-family="Arial" font-size="12.00">rd)</text>
</g>
<!-- server_FrontEnd_0291419f72 -->
<g id="node8" class="node">
<title>server_FrontEnd_0291419f72</title>
<g id="a_node8"><a xlink:href="https://github.com/tu_repo/frontend" xlink:title="Frontend service">
<ellipse fill="none" stroke="black" cx="569.62" cy="-243" rx="34.11" ry="34.11"/>
<text xml:space="preserve" text-anchor="middle" x="569.62" y="-237.57" font-family="Arial" font-size="14.00">FrontEnd</text>
</a>
</g>
</g>
<!-- server_ApplicationLoadBalancer_2c440ebe53&#45;&gt;server_FrontEnd_0291419f72 -->
<g id="edge4" class="edge">
<title>server_ApplicationLoadBalancer_2c440ebe53&#45;&gt;server_FrontEnd_0291419f72</title>
<path fill="none" stroke="black" d="M383.15,-255.89C383.15,-255.89 526.3,-255.89 526.3,-255.89"/>
<polygon fill="black" stroke="black" points="526.3,-259.39 536.3,-255.89 526.3,-252.39 526.3,-259.39"/>
<text xml:space="preserve" text-anchor="middle" x="462.39" y="-345.1" font-family="Arial" font-size="12.00">(4) HTTPS User</text>
<text xml:space="preserve" text-anchor="middle" x="462.39" y="-330.85" font-family="Arial" font-size="12.00">Action to FrontEnd</text>
</g>
<!-- actor_ClienteWebApp_d2006ce1bb&#45;&gt;server_AWSWAF_f8af758679 -->
<g id="edge1" class="edge">
<title>actor_ClienteWebApp_d2006ce1bb&#45;&gt;server_AWSWAF_f8af758679</title>
<path fill="none" stroke="black" d="M264.18,-50.64C184.6,-50.64 42.64,-50.64 42.64,-50.65 42.64,-50.65 42.64,-203.43 42.64,-203.43"/>
<polygon fill="black" stroke="black" points="39.14,-203.42 42.64,-213.43 46.14,-203.43 39.14,-203.42"/>
<text xml:space="preserve" text-anchor="middle" x="169.87" y="-88.35" font-family="Arial" font-size="12.00">(1) HTTPS Request</text>
<text xml:space="preserve" text-anchor="middle" x="169.87" y="-74.1" font-family="Arial" font-size="12.00">(User Login,</text>
<text xml:space="preserve" text-anchor="middle" x="169.87" y="-59.85" font-family="Arial" font-size="12.00">Orders)</text>
</g>
<!-- server_WebServer_c6f87088c2 -->
<g id="node4" class="node">
<title>server_WebServer_c6f87088c2</title>
<ellipse fill="none" stroke="black" cx="1019.33" cy="-287" rx="43.32" ry="43.32"/>
<text xml:space="preserve" text-anchor="middle" x="1019.33" y="-281.57" font-family="Arial" font-size="14.00">Web Server</text>
</g>
<!-- server_APIGateway_c76a0a7067 -->
<g id="node9" class="node">
<title>server_APIGateway_c76a0a7067</title>
<g id="a_node9"><a xlink:href="https://console.aws.amazon.com/apigateway" xlink:title="Amazon API Gateway">
<ellipse fill="none" stroke="black" cx="786.12" cy="-245" rx="48.14" ry="48.14"/>
<text xml:space="preserve" text-anchor="middle" x="786.12" y="-239.57" font-family="Arial" font-size="14.00">API Gateway</text>
</a>
</g>
</g>
<!-- server_WebServer_c6f87088c2&#45;&gt;server_APIGateway_c76a0a7067 -->
<g id="edge9" class="edge">
<title>server_WebServer_c6f87088c2&#45;&gt;server_APIGateway_c76a0a7067</title>
<path fill="none" stroke="black" d="M984.92,-260.17C984.92,-260.17 843.43,-260.17 843.43,-260.17"/>
<polygon fill="black" stroke="black" points="843.43,-256.67 833.43,-260.17 843.43,-263.67 843.43,-256.67"/>
<text xml:space="preserve" text-anchor="middle" x="905.14" y="-368.1" font-family="Arial" font-size="12.00">(9) Server</text>
<text xml:space="preserve" text-anchor="middle" x="905.14" y="-353.85" font-family="Arial" font-size="12.00">Response (HTTPS)</text>
</g>
<!-- lambda_Lambda_9345ab4c19 -->
<g id="node5" class="node">
<title>lambda_Lambda_9345ab4c19</title>
<path fill="none" stroke="black" d="M1045.58,-172C1045.58,-172 993.08,-172 993.08,-172 987.08,-172 981.08,-166 981.08,-160 981.08,-160 981.08,-148 981.08,-148 981.08,-142 987.08,-136 993.08,-136 993.08,-136 1045.58,-136 1045.58,-136 1051.58,-136 1057.58,-142 1057.58,-148 1057.58,-148 1057.58,-160 1057.58,-160 1057.58,-166 1051.58,-172 1045.58,-172"/>
<text xml:space="preserve" text-anchor="start" x="993.08" y="-149.57" font-family="Arial" font-weight="bold" font-size="14.00">Lambda</text>
</g>
<!-- datastore_AmazonDynamoDB_86e4604564 -->
<g id="node6" class="node">
<title>datastore_AmazonDynamoDB_86e4604564</title>
<image xlink:href="/Users/charlyleano/Documents/GitHub/DSS_proyecto_final/Diagrama_y_Arquitectura/venv/lib/python3.14/site-packages/pytm/images/datastore_black.png" width="49.7143px" height="36px" preserveAspectRatio="xMinYMin meet" x="1211.41" y="-157"/>
<text xml:space="preserve" text-anchor="middle" x="1147.39" y="-107.7" font-family="Arial" font-size="14.00">Amazon DynamoDB</text>
</g>
<!-- lambda_Lambda_9345ab4c19&#45;&gt;datastore_AmazonDynamoDB_86e4604564 -->
<g id="edge11" class="edge">
<title>lambda_Lambda_9345ab4c19&#45;&gt;datastore_AmazonDynamoDB_86e4604564</title>
<path fill="none" stroke="black" d="M1057.61,-146.5C1057.61,-146.5 1206.97,-146.5 1206.97,-146.5"/>
<polygon fill="black" stroke="black" points="1206.97,-150 1216.97,-146.5 1206.97,-143 1206.97,-150"/>
<text xml:space="preserve" text-anchor="middle" x="1125.64" y="-195.85" font-family="Arial" font-size="12.00">(11) Write Orders</text>
</g>
<!-- datastore_SBucketWebAppImages_b2e5892d06 -->
<g id="node7" class="node">
<title>datastore_SBucketWebAppImages_b2e5892d06</title>
<image xlink:href="/Users/charlyleano/Documents/GitHub/DSS_proyecto_final/Diagrama_y_Arquitectura/venv/lib/python3.14/site-packages/pytm/images/datastore_black.png" width="49.7143px" height="36px" preserveAspectRatio="xMinYMin meet" x="1406.79" y="-287"/>
<text xml:space="preserve" text-anchor="middle" x="1509.27" y="-237.7" font-family="Arial" font-size="14.00">S3 Bucket &#45; Web</text>
<text xml:space="preserve" text-anchor="middle" x="1509.27" y="-221.95" font-family="Arial" font-size="14.00">App Images</text>
</g>
<!-- lambda_Lambda_9345ab4c19&#45;&gt;datastore_SBucketWebAppImages_b2e5892d06 -->
<g id="edge12" class="edge">
<title>lambda_Lambda_9345ab4c19&#45;&gt;datastore_SBucketWebAppImages_b2e5892d06</title>
<path fill="none" stroke="black" d="M1058,-164.5C1158.95,-164.5 1422.64,-164.5 1422.64,-164.5 1422.64,-164.5 1422.64,-230.58 1422.64,-230.58"/>
<polygon fill="black" stroke="black" points="1419.14,-230.58 1422.64,-240.58 1426.14,-230.58 1419.14,-230.58"/>
<text xml:space="preserve" text-anchor="middle" x="1236.27" y="-318.1" font-family="Arial" font-size="12.00">(12) Upload/Read</text>
<text xml:space="preserve" text-anchor="middle" x="1236.27" y="-303.85" font-family="Arial" font-size="12.00">Images</text>
</g>
<!-- datastore_AmazonDynamoDB_86e4604564&#45;&gt;datastore_SBucketWebAppImages_b2e5892d06 -->
<g id="edge13" class="edge">
<title>datastore_AmazonDynamoDB_86e4604564&#45;&gt;datastore_SBucketWebAppImages_b2e5892d06</title>
<path fill="none" stroke="black" d="M1254.05,-139C1303.77,-139 1440.64,-139 1440.64,-139 1440.64,-139 1440.64,-230.55 1440.64,-230.55"/>
<polygon fill="black" stroke="black" points="1437.14,-230.55 1440.64,-240.55 1444.14,-230.55 1437.14,-230.55"/>
<text xml:space="preserve" text-anchor="middle" x="1344.27" y="-239.85" font-family="Arial" font-size="12.00">(13) Get Images</text>
</g>
<!-- server_FrontEnd_0291419f72&#45;&gt;server_ApplicationLoadBalancer_2c440ebe53 -->
<g id="edge5" class="edge">
<title>server_FrontEnd_0291419f72&#45;&gt;server_ApplicationLoadBalancer_2c440ebe53</title>
<path fill="none" stroke="black" d="M536.04,-234.66C536.04,-234.66 379.94,-234.66 379.94,-234.66"/>
<polygon fill="black" stroke="black" points="379.94,-231.16 369.94,-234.66 379.94,-238.16 379.94,-231.16"/>
<text xml:space="preserve" text-anchor="middle" x="462.39" y="-239.1" font-family="Arial" font-size="12.00">(5) HTTPS FrontEnd</text>
<text xml:space="preserve" text-anchor="middle" x="462.39" y="-224.85" font-family="Arial" font-size="12.00">Action</text>
</g>
<!-- server_FrontEnd_0291419f72&#45;&gt;server_APIGateway_c76a0a7067 -->
<g id="edge6" class="edge">
<title>server_FrontEnd_0291419f72&#45;&gt;server_APIGateway_c76a0a7067</title>
<path fill="none" stroke="black" d="M602.04,-231.63C602.04,-231.63 727.93,-231.63 727.93,-231.63"/>
<polygon fill="black" stroke="black" points="727.93,-235.13 737.93,-231.63 727.93,-228.13 727.93,-235.13"/>
<text xml:space="preserve" text-anchor="middle" x="670.86" y="-219.1" font-family="Arial" font-size="12.00">(6) API Call to</text>
<text xml:space="preserve" text-anchor="middle" x="670.86" y="-204.85" font-family="Arial" font-size="12.00">Gateway (HTTPS)</text>
</g>
<!-- server_APIGateway_c76a0a7067&#45;&gt;server_WebServer_c6f87088c2 -->
<g id="edge8" class="edge">
<title>server_APIGateway_c76a0a7067&#45;&gt;server_WebServer_c6f87088c2</title>
<path fill="none" stroke="black" d="M822.82,-276.65C822.82,-276.65 965.41,-276.65 965.41,-276.65"/>
<polygon fill="black" stroke="black" points="965.41,-280.15 975.41,-276.65 965.41,-273.15 965.41,-280.15"/>
<text xml:space="preserve" text-anchor="middle" x="905.14" y="-262.1" font-family="Arial" font-size="12.00">(8) API Request</text>
<text xml:space="preserve" text-anchor="middle" x="905.14" y="-247.85" font-family="Arial" font-size="12.00">(HTTPS)</text>
</g>
<!-- server_APIGateway_c76a0a7067&#45;&gt;lambda_Lambda_9345ab4c19 -->
<g id="edge10" class="edge">
<title>server_APIGateway_c76a0a7067&#45;&gt;lambda_Lambda_9345ab4c19</title>
<path fill="none" stroke="black" d="M827.87,-220.27C895.04,-220.27 1019.64,-220.27 1019.64,-220.27 1019.64,-220.27 1019.64,-183.97 1019.64,-183.97"/>
<polygon fill="black" stroke="black" points="1023.14,-183.97 1019.64,-173.97 1016.14,-183.97 1023.14,-183.97"/>
<text xml:space="preserve" text-anchor="middle" x="905.14" y="-156.85" font-family="Arial" font-size="12.00">(10) Invoke Lambda</text>
</g>
<!-- server_APIGateway_c76a0a7067&#45;&gt;server_FrontEnd_0291419f72 -->
<g id="edge7" class="edge">
<title>server_APIGateway_c76a0a7067&#45;&gt;server_FrontEnd_0291419f72</title>
<path fill="none" stroke="black" d="M738.61,-254.37C738.61,-254.37 613.79,-254.37 613.79,-254.37"/>
<polygon fill="black" stroke="black" points="613.79,-250.87 603.79,-254.37 613.79,-257.87 613.79,-250.87"/>
<text xml:space="preserve" text-anchor="middle" x="670.86" y="-325.1" font-family="Arial" font-size="12.00">(7) API Response</text>
<text xml:space="preserve" text-anchor="middle" x="670.86" y="-310.85" font-family="Arial" font-size="12.00">(HTTPS)</text>
</g>
</g>
</svg>
